<svg width="256" height="256" viewBox="0 0 256 256" fill="none" xmlns="http://www.w3.org/2000/svg">
<rect x="6.5" y="6.5" width="243" height="243" stroke="#E2D4BB"/>
<g filter="url(#filter0_d_3001_25804)">
<mask id="path-2-inside-1_3001_25804" fill="white">
<path fill-rule="evenodd" clip-rule="evenodd" d="M15 3H241C241 9.62742 246.373 15 253 15V241C246.373 241 241 246.373 241 253H15C15 246.373 9.62742 241 3 241V15C9.62742 15 15 9.62742 15 3Z"/>
</mask>
<path fill-rule="evenodd" clip-rule="evenodd" d="M15 3H241C241 9.62742 246.373 15 253 15V241C246.373 241 241 246.373 241 253H15C15 246.373 9.62742 241 3 241V15C9.62742 15 15 9.62742 15 3Z" fill="white"/>
<path d="M241 3H242V2H241V3ZM15 3V2H14V3H15ZM253 15H254V14H253V15ZM253 241V242H254V241H253ZM241 253V254H242V253H241ZM15 253H14V254H15V253ZM3 241H2V242H3V241ZM3 15V14H2V15H3ZM241 2H15V4H241V2ZM253 14C246.925 14 242 9.07513 242 3H240C240 10.1797 245.82 16 253 16V14ZM254 241V15H252V241H254ZM242 253C242 246.925 246.925 242 253 242V240C245.82 240 240 245.82 240 253H242ZM15 254H241V252H15V254ZM3 242C9.07513 242 14 246.925 14 253H16C16 245.82 10.1797 240 3 240V242ZM2 15V241H4V15H2ZM14 3C14 9.07513 9.07513 14 3 14V16C10.1797 16 16 10.1797 16 3H14Z" fill="#E2D4BB" mask="url(#path-2-inside-1_3001_25804)"/>
</g>
<defs>
<filter id="filter0_d_3001_25804" x="0" y="0" width="256" height="256" filterUnits="userSpaceOnUse" color-interpolation-filters="sRGB">
<feFlood flood-opacity="0" result="BackgroundImageFix"/>
<feColorMatrix in="SourceAlpha" type="matrix" values="0 0 0 0 0 0 0 0 0 0 0 0 0 0 0 0 0 0 127 0" result="hardAlpha"/>
<feOffset/>
<feGaussianBlur stdDeviation="1.5"/>
<feComposite in2="hardAlpha" operator="out"/>
<feColorMatrix type="matrix" values="0 0 0 0 0 0 0 0 0 0 0 0 0 0 0 0 0 0 0.25 0"/>
<feBlend mode="normal" in2="BackgroundImageFix" result="effect1_dropShadow_3001_25804"/>
<feBlend mode="normal" in="SourceGraphic" in2="effect1_dropShadow_3001_25804" result="shape"/>
</filter>
</defs>
</svg>
