<svg width="250" height="300" viewBox="0 0 250 300" fill="none" xmlns="http://www.w3.org/2000/svg">
<rect x="5.5" y="4.5" width="239" height="289" stroke="#E2D4BB"/>
<mask id="path-2-inside-1_0_1" fill="white">
<path fill-rule="evenodd" clip-rule="evenodd" d="M15 0H235C235 8.28427 241.716 15 250 15V285C241.716 285 235 291.716 235 300H15C15 291.716 8.28427 285 0 285V15C8.28427 15 15 8.28427 15 0Z"/>
</mask>
<path fill-rule="evenodd" clip-rule="evenodd" d="M15 0H235C235 8.28427 241.716 15 250 15V285C241.716 285 235 291.716 235 300H15C15 291.716 8.28427 285 0 285V15C8.28427 15 15 8.28427 15 0Z" fill="white"/>
<path d="M235 0H236V-1H235V0ZM15 0V-1H14V0H15ZM250 15H251V14H250V15ZM250 285V286H251V285H250ZM235 300V301H236V300H235ZM15 300H14V301H15V300ZM0 285H-1V286H0V285ZM0 15V14H-1V15H0ZM235 -1H15V1H235V-1ZM250 14C242.268 14 236 7.73199 236 0H234C234 8.83656 241.163 16 250 16V14ZM251 285V15H249V285H251ZM236 300C236 292.268 242.268 286 250 286V284C241.163 284 234 291.163 234 300H236ZM15 301H235V299H15V301ZM0 286C7.73199 286 14 292.268 14 300H16C16 291.163 8.83656 284 0 284V286ZM-1 15V285H1V15H-1ZM14 0C14 7.73199 7.73199 14 0 14V16C8.83656 16 16 8.83656 16 0H14Z" fill="#E2D4BB" mask="url(#path-2-inside-1_0_1)"/>
</svg>
