<svg width="1020" height="120" viewBox="0 0 1020 120" fill="none" xmlns="http://www.w3.org/2000/svg">
<rect x="4.5" y="5.5" width="1011" height="109" stroke="#E2D4BB"/>
<mask id="path-2-inside-1_1075_19931" fill="white">
<path fill-rule="evenodd" clip-rule="evenodd" d="M1020 14.9936C1019.86 14.9979 1019.71 15 1019.57 15C1011.52 15 1005 8.28427 1005 0H14.5714C14.5714 8.28427 8.04758 15 0 15V105C8.04758 105 14.5714 111.716 14.5714 120H1005C1005 111.716 1011.52 105 1019.57 105C1019.71 105 1019.86 105.002 1020 105.006V14.9936Z"/>
</mask>
<path fill-rule="evenodd" clip-rule="evenodd" d="M1020 14.9936C1019.86 14.9979 1019.71 15 1019.57 15C1011.52 15 1005 8.28427 1005 0H14.5714C14.5714 8.28427 8.04758 15 0 15V105C8.04758 105 14.5714 111.716 14.5714 120H1005C1005 111.716 1011.52 105 1019.57 105C1019.71 105 1019.86 105.002 1020 105.006V14.9936Z" fill="white"/>
<path d="M1020 14.9936H1021V13.9635L1019.97 13.9941L1020 14.9936ZM1005 0H1006V-1H1005V0ZM14.5714 0V-1H13.5714V0H14.5714ZM0 15V14H-1V15H0ZM0 105H-1V106H0V105ZM14.5714 120H13.5714V121H14.5714V120ZM1005 120V121H1006V120H1005ZM1020 105.006L1019.97 106.006L1021 106.037V105.006H1020ZM1019.57 16C1019.72 16 1019.88 15.9977 1020.03 15.9932L1019.97 13.9941C1019.84 13.998 1019.7 14 1019.57 14V16ZM1004 0C1004 8.80903 1010.94 16 1019.57 16V14C1012.1 14 1006 7.75951 1006 0H1004ZM14.5714 1H1005V-1H14.5714V1ZM0 16C8.62699 16 15.5714 8.80903 15.5714 0H13.5714C13.5714 7.75951 7.46817 14 0 14V16ZM1 105V15H-1V105H1ZM15.5714 120C15.5714 111.191 8.62699 104 0 104V106C7.46817 106 13.5714 112.24 13.5714 120H15.5714ZM1005 119H14.5714V121H1005V119ZM1006 120C1006 112.24 1012.1 106 1019.57 106V104C1010.94 104 1004 111.191 1004 120H1006ZM1019.57 106C1019.7 106 1019.84 106.002 1019.97 106.006L1020.03 104.007C1019.88 104.002 1019.72 104 1019.57 104V106ZM1019 14.9936V105.006H1021V14.9936H1019Z" fill="#E2D4BB" mask="url(#path-2-inside-1_1075_19931)"/>
</svg>
