<svg width="250" height="250" viewBox="0 0 250 250" fill="none" xmlns="http://www.w3.org/2000/svg">
<rect x="3.5" y="3.5" width="243" height="243" stroke="#E2D4BB"/>
<mask id="path-2-inside-1_2838_27572" fill="white">
<path fill-rule="evenodd" clip-rule="evenodd" d="M12 0H238C238 6.62742 243.373 12 250 12V238C243.373 238 238 243.373 238 250H12C12 243.373 6.62742 238 0 238V12C6.62742 12 12 6.62742 12 0Z"/>
</mask>
<path fill-rule="evenodd" clip-rule="evenodd" d="M12 0H238C238 6.62742 243.373 12 250 12V238C243.373 238 238 243.373 238 250H12C12 243.373 6.62742 238 0 238V12C6.62742 12 12 6.62742 12 0Z" fill="white"/>
<path d="M238 0H239V-1H238V0ZM12 0V-1H11V0H12ZM250 12H251V11H250V12ZM250 238V239H251V238H250ZM238 250V251H239V250H238ZM12 250H11V251H12V250ZM0 238H-1V239H0V238ZM0 12V11H-1V12H0ZM238 -1H12V1H238V-1ZM250 11C243.925 11 239 6.07513 239 0H237C237 7.1797 242.82 13 250 13V11ZM251 238V12H249V238H251ZM239 250C239 243.925 243.925 239 250 239V237C242.82 237 237 242.82 237 250H239ZM12 251H238V249H12V251ZM0 239C6.07513 239 11 243.925 11 250H13C13 242.82 7.1797 237 0 237V239ZM-1 12V238H1V12H-1ZM11 0C11 6.07513 6.07513 11 0 11V13C7.1797 13 13 7.1797 13 0H11Z" fill="#E2D4BB" mask="url(#path-2-inside-1_2838_27572)"/>
</svg>
