<svg width="1020" height="180" viewBox="0 0 1020 180" fill="none" xmlns="http://www.w3.org/2000/svg">
<rect x="5.5" y="4.5" width="1010" height="171" stroke="#E2D4BB"/>
<mask id="path-2-inside-1_1540_29321" fill="white">
<path fill-rule="evenodd" clip-rule="evenodd" d="M1020 14.1465C1018.44 14.6992 1016.75 15 1015 15C1006.72 15 1000 8.28427 1000 0H15C15 8.28427 8.28427 15 0 15V165C8.28427 165 15 171.716 15 180H1000C1000 171.716 1006.72 165 1015 165C1016.75 165 1018.44 165.301 1020 165.854V14.1465Z"/>
</mask>
<path fill-rule="evenodd" clip-rule="evenodd" d="M1020 14.1465C1018.44 14.6992 1016.75 15 1015 15C1006.72 15 1000 8.28427 1000 0H15C15 8.28427 8.28427 15 0 15V165C8.28427 165 15 171.716 15 180H1000C1000 171.716 1006.72 165 1015 165C1016.75 165 1018.44 165.301 1020 165.854V14.1465Z" fill="white"/>
<path d="M1020 14.1465H1021V12.7324L1019.67 13.2036L1020 14.1465ZM1000 0H1001V-1H1000V0ZM15 0V-1H14V0H15ZM0 15V14H-1V15H0ZM0 165H-1V166H0V165ZM15 180H14V181H15V180ZM1000 180V181H1001V180H1000ZM1020 165.854L1019.67 166.796L1021 167.268V165.854H1020ZM1015 16C1016.87 16 1018.66 15.6794 1020.33 15.0893L1019.67 13.2036C1018.21 13.7191 1016.64 14 1015 14V16ZM999 0C999 8.83655 1006.16 16 1015 16V14C1007.27 14 1001 7.73199 1001 0H999ZM15 1H1000V-1H15V1ZM0 16C8.83656 16 16 8.83656 16 0H14C14 7.73199 7.73199 14 0 14V16ZM1 165V15H-1V165H1ZM16 180C16 171.163 8.83656 164 0 164V166C7.73199 166 14 172.268 14 180H16ZM1000 179H15V181H1000V179ZM1001 180C1001 172.268 1007.27 166 1015 166V164C1006.16 164 999 171.163 999 180H1001ZM1015 166C1016.64 166 1018.21 166.281 1019.67 166.796L1020.33 164.911C1018.66 164.321 1016.87 164 1015 164V166ZM1019 14.1465V165.854H1021V14.1465H1019Z" fill="#E2D4BB" mask="url(#path-2-inside-1_1540_29321)"/>
</svg>
