<svg width="14" height="12" viewBox="0 0 14 12" fill="none" xmlns="http://www.w3.org/2000/svg">
<path d="M11.8519 1.54929C10.9442 1.13243 9.98626 0.835073 9.00205 0.66467C8.99314 0.663169 8.98398 0.664466 8.97583 0.668383C8.96768 0.6723 8.96095 0.678645 8.95655 0.686545C8.83318 0.905293 8.69668 1.19141 8.60131 1.41541C7.54046 1.25456 6.46143 1.25456 5.40059 1.41541C5.29465 1.16568 5.17428 0.92231 5.04009 0.686545C5.0357 0.678645 5.02897 0.6723 5.02082 0.668383C5.01267 0.664466 5.00351 0.663169 4.9946 0.66467C4.01023 0.834419 3.05212 1.13192 2.14475 1.54929C2.13695 1.55218 2.13043 1.55777 2.12638 1.56504C0.311645 4.27663 -0.186225 6.92173 0.0578972 9.53358C0.0596472 9.54641 0.0657721 9.5572 0.076272 9.56595C1.13323 10.3484 2.31517 10.946 3.57186 11.3334C3.58073 11.3362 3.59027 11.3361 3.59908 11.3331C3.60789 11.3302 3.61552 11.3244 3.62086 11.3168C3.89094 10.9493 4.12952 10.5617 4.3366 10.1539C4.34091 10.1455 4.34238 10.136 4.3408 10.1267C4.33923 10.1174 4.33468 10.1088 4.32785 10.1023L4.3121 10.0927C3.9353 9.94741 3.57022 9.77336 3.22011 9.57208C3.21034 9.56654 3.20307 9.55745 3.19981 9.5467C3.19656 9.53595 3.19756 9.52436 3.20261 9.51433L3.21574 9.4977C3.28982 9.44229 3.36215 9.38541 3.43274 9.32708C3.43892 9.32211 3.44634 9.31891 3.4542 9.31783C3.46206 9.31675 3.47007 9.31783 3.47736 9.32095C5.76896 10.3674 8.24956 10.3674 10.5132 9.32095C10.5207 9.31748 10.529 9.31621 10.5372 9.3173C10.5454 9.31838 10.5532 9.32177 10.5595 9.32708C10.6301 9.38541 10.7025 9.44229 10.7765 9.4977C10.7827 9.50192 10.7877 9.50764 10.791 9.51431C10.7943 9.52099 10.7959 9.52841 10.7955 9.53587C10.7952 9.54332 10.7929 9.55056 10.789 9.5569C10.7851 9.56324 10.7796 9.56846 10.773 9.57208C10.4244 9.77655 10.0588 9.95045 9.68017 10.0918C9.67414 10.094 9.66866 10.0975 9.66412 10.102C9.65959 10.1066 9.65611 10.112 9.65392 10.1181C9.65179 10.1239 9.65092 10.1301 9.65138 10.1363C9.65183 10.1425 9.65359 10.1485 9.65655 10.1539C9.86654 10.5608 10.1072 10.9493 10.3714 11.3168C10.3768 11.3244 10.3844 11.3302 10.3932 11.3331C10.402 11.3361 10.4115 11.3362 10.4204 11.3334C11.6796 10.9481 12.8636 10.3504 13.9213 9.56595C13.9265 9.56224 13.9309 9.55741 13.9341 9.55182C13.9372 9.54622 13.9391 9.53999 13.9396 9.53358C14.2319 6.51398 13.4505 3.89076 11.8694 1.56591C11.868 1.56194 11.8657 1.55836 11.8627 1.55547C11.8596 1.55257 11.8559 1.55046 11.8519 1.54929ZM4.67872 7.94284C3.98836 7.94284 3.42049 7.30935 3.42049 6.53236C3.42049 5.75537 3.97786 5.121 4.67872 5.121C5.38484 5.121 5.94746 5.75974 5.93696 6.53236C5.93696 7.30935 5.37959 7.94284 4.67872 7.94284ZM9.33017 7.94284C8.64068 7.94284 8.07194 7.30935 8.07194 6.53236C8.07194 5.75537 8.62931 5.121 9.33017 5.121C10.0363 5.121 10.5998 5.75974 10.5884 6.53236C10.5884 7.30935 10.0363 7.94284 9.33017 7.94284Z" fill="#8C8C8C"/>
</svg>
