<svg width="82" height="80" viewBox="0 0 82 80" fill="none" xmlns="http://www.w3.org/2000/svg">
<rect width="81.0811" height="80" transform="translate(0.459473)" fill="#F5F5F5"/>
<g clip-path="url(#clip0_3387_27131)">
<path d="M32.9875 31.4297C32.9875 32.8583 32.5207 34.072 31.587 35.0708C30.6533 36.0697 29.5214 36.5703 28.1913 36.5725C26.8611 36.5748 25.7292 36.0743 24.7955 35.0708C23.8618 34.0674 23.395 32.8537 23.395 31.4297C23.395 30.0057 23.8618 28.792 24.7955 27.7885C25.7292 26.7851 26.8611 26.2845 28.1913 26.2868C29.5214 26.2891 30.6533 26.7897 31.587 27.7885C32.5207 28.7874 32.9875 30.0011 32.9875 31.4297ZM58.5675 41.7154V53.7154H23.395V48.5725L31.3888 40.0011L35.3856 44.2868L48.1756 30.5725L58.5675 41.7154ZM60.9657 22.8583H20.9969C20.7794 22.8583 20.5919 22.9428 20.4341 23.112C20.2764 23.2811 20.1975 23.4823 20.1975 23.7154V56.2868C20.1975 56.52 20.2764 56.7211 20.4341 56.8903C20.5919 57.0594 20.7794 57.144 20.9969 57.144H60.9657C61.1831 57.144 61.3707 57.0594 61.5284 56.8903C61.6862 56.7211 61.765 56.52 61.765 56.2868V23.7154C61.765 23.4823 61.6862 23.2811 61.5284 23.112C61.3707 22.9428 61.1831 22.8583 60.9657 22.8583ZM64.9625 23.7154V56.2868C64.9625 57.4663 64.5714 58.4754 63.789 59.3143C63.0067 60.1531 62.0656 60.5725 60.9657 60.5725H20.9969C19.8969 60.5725 18.9558 60.1531 18.1735 59.3143C17.3912 58.4754 17 57.4663 17 56.2868V23.7154C17 22.536 17.3912 21.5268 18.1735 20.688C18.9558 19.8491 19.8969 19.4297 20.9969 19.4297H60.9657C62.0656 19.4297 63.0067 19.8491 63.789 20.688C64.5714 21.5268 64.9625 22.536 64.9625 23.7154Z" fill="black" fill-opacity="0.25"/>
</g>
<defs>
<clipPath id="clip0_3387_27131">
<rect width="48" height="48" fill="white" transform="translate(17 16)"/>
</clipPath>
</defs>
</svg>
