<svg width="14" height="14" viewBox="0 0 14 14" fill="none" xmlns="http://www.w3.org/2000/svg">
<path d="M7 0C10.8596 0 14 2.67417 14 5.96179C14 7.27775 13.5144 8.46239 12.4994 9.62959C11.0311 11.4038 7.74725 13.5646 7 13.8952C6.27375 14.2166 6.35775 13.7143 6.391 13.516L6.39363 13.4994L6.49337 12.8704C6.517 12.683 6.5415 12.3919 6.47062 12.2064C6.39187 12.0016 6.08213 11.8951 5.85462 11.8437C2.49025 11.3781 0 8.9087 0 5.96179C0 2.67417 3.14125 0 7 0ZM4.39425 7.05827H3.05988V4.51634C3.05988 4.4785 3.04561 4.4422 3.02021 4.41536C2.9948 4.38852 2.9603 4.37332 2.92425 4.37308H2.4325C2.41457 4.37308 2.39682 4.37678 2.38026 4.38398C2.3637 4.39118 2.34866 4.40174 2.33598 4.41504C2.3233 4.42834 2.31325 4.44413 2.30639 4.46152C2.29953 4.4789 2.296 4.49753 2.296 4.51634V7.71763C2.296 7.75528 2.31087 7.7911 2.3345 7.81589V7.81681L2.33625 7.81865L2.338 7.82048C2.35046 7.83333 2.36523 7.84345 2.38146 7.85023C2.39768 7.85701 2.41504 7.86032 2.4325 7.85997H4.39425C4.4695 7.85997 4.52987 7.79569 4.52987 7.71671V7.20245C4.52999 7.18364 4.52657 7.16498 4.51982 7.14756C4.51307 7.13013 4.50311 7.11427 4.49051 7.10088C4.47792 7.08749 4.46294 7.07684 4.44642 7.06953C4.4299 7.06222 4.41218 7.05839 4.39425 7.05827ZM5.08638 4.37308C5.05017 4.37308 5.01545 4.38817 4.98986 4.41504C4.96426 4.44191 4.94987 4.47834 4.94987 4.51634V7.71763C4.94987 7.79661 5.01113 7.85997 5.08638 7.85997H5.57812C5.65338 7.85997 5.71375 7.79569 5.71375 7.71763V4.51634C5.71375 4.4785 5.69949 4.4422 5.67408 4.41536C5.64867 4.38852 5.61418 4.37332 5.57812 4.37308H5.08638ZM8.4665 4.37308C8.4303 4.37308 8.39558 4.38817 8.36998 4.41504C8.34438 4.44191 8.33 4.47834 8.33 4.51634V6.41728L6.93262 4.43736L6.92125 4.42359L6.9125 4.41349L6.90987 4.41073L6.90025 4.40247L6.895 4.39879L6.89237 4.39696L6.888 4.3942L6.881 4.38961H6.87925L6.87663 4.38777L6.86788 4.3841L6.86437 4.38226L6.85563 4.37951H6.85388L6.85125 4.37859L6.84338 4.37675H6.83813L6.8355 4.37583H6.832L6.83025 4.37492H6.328C6.29195 4.37492 6.25736 4.38988 6.23179 4.41655C6.20621 4.44322 6.19173 4.47942 6.1915 4.51726V7.71855C6.1915 7.79753 6.25275 7.86089 6.328 7.86089H6.818C6.89412 7.86089 6.95537 7.79661 6.95537 7.71855V5.81761L8.35538 7.8012C8.36518 7.81441 8.37666 7.82615 8.3895 7.8361L8.39038 7.83701L8.39913 7.84252L8.40263 7.84436L8.40963 7.84803L8.41575 7.85079L8.42013 7.85262L8.42887 7.85538H8.4315C8.44296 7.85845 8.45469 7.8603 8.4665 7.86089H8.9565C9.03263 7.86089 9.09387 7.79661 9.09387 7.71855V4.51634C9.09387 4.47834 9.07949 4.44191 9.0539 4.41504C9.0283 4.38817 8.99358 4.37308 8.95738 4.37308H8.4665ZM11.8046 5.03152V4.51726C11.8047 4.49844 11.8013 4.47979 11.7946 4.46236C11.7878 4.44494 11.7779 4.42908 11.7653 4.41569C11.7527 4.4023 11.7377 4.39165 11.7212 4.38434C11.7047 4.37702 11.6869 4.3732 11.669 4.37308H9.70725C9.67203 4.37359 9.63828 4.38802 9.61275 4.41349H9.61187L9.611 4.41532L9.60925 4.41808C9.58519 4.44464 9.57146 4.47969 9.57075 4.51634V7.71763C9.57075 7.75528 9.58563 7.7911 9.60925 7.81589L9.611 7.81865L9.61275 7.82048C9.63842 7.84561 9.67215 7.85971 9.70725 7.85997H11.669C11.7443 7.85997 11.8046 7.79569 11.8046 7.71671V7.20245C11.8047 7.18364 11.8013 7.16498 11.7946 7.14756C11.7878 7.13013 11.7779 7.11427 11.7653 7.10088C11.7527 7.08749 11.7377 7.07684 11.7212 7.06953C11.7047 7.06222 11.6869 7.05839 11.669 7.05827H10.3338V6.51738H11.6681C11.7434 6.51738 11.8038 6.45309 11.8038 6.37412V5.85985C11.8039 5.84104 11.8004 5.82239 11.7937 5.80496C11.7869 5.78753 11.777 5.77167 11.7644 5.75828C11.7518 5.7449 11.7368 5.73424 11.7203 5.72693C11.7038 5.71962 11.6861 5.7158 11.6681 5.71568H10.3338V5.17478H11.6681C11.7434 5.17478 11.8038 5.1105 11.8038 5.03152H11.8046Z" fill="#8C8C8C"/>
</svg>
