<svg width="15" height="14" viewBox="0 0 15 14" fill="none" xmlns="http://www.w3.org/2000/svg">
<path d="M1.66667 14C1.66667 14 0.5 14 0.5 12.8333C0.5 11.6667 1.66667 8.16667 7.5 8.16667C13.3333 8.16667 14.5 11.6667 14.5 12.8333C14.5 14 13.3333 14 13.3333 14H1.66667ZM7.5 7C8.42826 7 9.3185 6.63125 9.97487 5.97487C10.6313 5.3185 11 4.42826 11 3.5C11 2.57174 10.6313 1.6815 9.97487 1.02513C9.3185 0.368749 8.42826 0 7.5 0C6.57174 0 5.6815 0.368749 5.02513 1.02513C4.36875 1.6815 4 2.57174 4 3.5C4 4.42826 4.36875 5.3185 5.02513 5.97487C5.6815 6.63125 6.57174 7 7.5 7Z" fill="#8C8C8C"/>
</svg>
