<svg width="20" height="20" viewBox="0 0 20 20" fill="none" xmlns="http://www.w3.org/2000/svg">
<path d="M9.9866 19.2761L8.95519 18.235L8.95531 18.2349L8.94609 18.2261C7.2506 16.6 5.85855 15.1947 4.76797 14.0093C3.67363 12.8198 2.80026 11.7615 2.22622 10.8255C1.62572 9.84646 1.14729 9.01045 0.865149 8.29486C0.597176 7.61522 0.5 6.81543 0.5 5.97826C0.5 4.34254 0.966043 3.0685 1.95144 2.09479C2.98008 1.07834 4.15984 0.5 5.5 0.5C6.30554 0.5 7.03208 0.691248 7.7855 0.996027C8.53213 1.40509 9.16195 1.90258 9.6032 2.47813L9.99444 2.98845L10.3926 2.48352C10.9631 1.76008 11.4984 1.28788 12.1887 1.00649C12.9514 0.695633 13.6853 0.5 14.5 0.5C15.9696 0.5 17.1223 0.990772 18.0165 2.05991C18.952 3.17847 19.5 4.48085 19.5 5.97826C19.5 6.80738 19.4048 7.50139 19.1349 8.18616C18.8443 8.92299 18.4621 9.75275 17.7934 10.6873C17.0969 11.6607 16.311 12.7278 15.232 13.9006C14.1414 15.086 12.7494 16.4913 11.0539 18.1174L11.0426 18.1282L11.032 18.1397L9.9866 19.2761Z" fill="#F32121" stroke="#6D6D6D"/>
</svg>
