<svg width="250" height="201" viewBox="0 0 250 201" fill="none" xmlns="http://www.w3.org/2000/svg">
<mask id="mask0_1190_21509" style="mask-type:alpha" maskUnits="userSpaceOnUse" x="-3" y="0" width="256" height="257">
<path d="M-3 0.765625H253V256.766H-3V0.765625Z" fill="#D9D9D9"/>
</mask>
<g mask="url(#mask0_1190_21509)">
<path d="M125 125.315C114.733 125.315 106.269 121.985 99.6077 115.323C92.9462 108.662 89.6155 100.198 89.6155 89.9311C89.6155 79.5962 92.9462 71.1151 99.6077 64.4877C106.269 57.8605 114.733 54.5469 125 54.5469C135.266 54.5469 143.73 57.8605 150.392 64.4877C157.053 71.1151 160.384 79.5962 160.384 89.9311C160.384 100.198 157.053 108.662 150.392 115.323C143.73 121.985 135.266 125.315 125 125.315ZM45 206.71V186.464C45 180.734 46.518 175.743 49.5539 171.49C52.5898 167.237 56.5351 163.969 61.3899 161.685C72.6171 156.694 83.4409 152.933 93.8613 150.403C104.282 147.873 114.661 146.608 125 146.608C135.338 146.608 145.69 147.9 156.056 150.485C166.422 153.07 177.218 156.803 188.446 161.685C193.41 163.969 197.41 167.237 200.446 171.49C203.482 175.743 204.999 180.734 204.999 186.464V206.71H45Z" fill="#BFBFBF"/>
</g>
</svg>
