<svg width="400" height="55" viewBox="0 0 400 55" fill="none" xmlns="http://www.w3.org/2000/svg">
<path fill-rule="evenodd" clip-rule="evenodd" d="M388 55H12H11V54.917C8.16229 54.441 6 51.973 6 49C2.68629 49 0 46.3137 0 43V12C0 8.68629 2.68629 6 6 6C6 3.027 8.16229 0.559037 11 0.0829584V0H12H388C391.314 0 394 2.68629 394 6C397.314 6 400 8.68629 400 12V43C400 46.3137 397.314 49 394 49C394 52.3137 391.314 55 388 55Z" fill="#FFC700"/>
<mask id="path-2-inside-1_0_1" fill="white">
<path fill-rule="evenodd" clip-rule="evenodd" d="M385.18 52H14.82H13.835V51.9261C11.0405 51.502 8.91091 49.3042 8.91 46.6562C5.646 46.6562 3 44.263 3 41.3108V41.3096V13.6914V13.6892C3 10.737 5.646 8.34375 8.91 8.34375C8.91091 5.69584 11.0405 3.49796 13.835 3.07391V3H14.82H385.18C388.443 3 391.089 5.39232 391.09 8.34375C394.354 8.34375 397 10.737 397 13.6892V13.6904V41.3086V41.3108C397 44.263 394.354 46.6562 391.09 46.6562C391.089 49.6077 388.443 52 385.18 52Z"/>
</mask>
<path d="M13.835 52H12.835V53H13.835V52ZM13.835 51.9261H14.835V51.0664L13.985 50.9374L13.835 51.9261ZM8.91 46.6562L9.91 46.6559L9.90966 45.6562H8.91V46.6562ZM8.91 8.34375V9.34375H9.90966L9.91 8.3441L8.91 8.34375ZM13.835 3.07391L13.985 4.06259L14.835 3.93361V3.07391H13.835ZM13.835 3V2H12.835V3H13.835ZM391.09 8.34375L390.09 8.34409L390.09 9.34375H391.09V8.34375ZM391.09 46.6562V45.6562H390.09L390.09 46.6559L391.09 46.6562ZM14.82 53H385.18V51H14.82V53ZM13.835 53H14.82V51H13.835V53ZM12.835 51.9261V52H14.835V51.9261H12.835ZM7.91 46.6566C7.91111 49.8785 10.4851 52.4292 13.685 52.9148L13.985 50.9374C11.5958 50.5749 9.91072 48.7298 9.91 46.6559L7.91 46.6566ZM2 41.3108C2 44.9074 5.19054 47.6562 8.91 47.6562V45.6562C6.10146 45.6562 4 43.6186 4 41.3108H2ZM2 41.3096V41.3108H4V41.3096H2ZM2 13.6914V41.3096H4V13.6914H2ZM2 13.6892V13.6914H4V13.6892H2ZM8.91 7.34375C5.19054 7.34375 2 10.0926 2 13.6892H4C4 11.3814 6.10146 9.34375 8.91 9.34375V7.34375ZM13.685 2.08523C10.4851 2.57078 7.91111 5.12147 7.91 8.3434L9.91 8.3441C9.91072 6.27022 11.5958 4.42514 13.985 4.06259L13.685 2.08523ZM12.835 3V3.07391H14.835V3H12.835ZM14.82 2H13.835V4H14.82V2ZM385.18 2H14.82V4H385.18V2ZM392.09 8.34341C392.089 4.74779 388.899 2 385.18 2V4C387.988 4 390.089 6.03685 390.09 8.34409L392.09 8.34341ZM398 13.6892C398 10.0926 394.809 7.34375 391.09 7.34375V9.34375C393.899 9.34375 396 11.3814 396 13.6892H398ZM398 13.6904V13.6892H396V13.6904H398ZM398 41.3086V13.6904H396V41.3086H398ZM398 41.3108V41.3086H396V41.3108H398ZM391.09 47.6562C394.809 47.6562 398 44.9074 398 41.3108H396C396 43.6186 393.899 45.6562 391.09 45.6562V47.6562ZM385.18 53C388.899 53 392.089 50.2522 392.09 46.6566L390.09 46.6559C390.089 48.9632 387.988 51 385.18 51V53Z" fill="white" mask="url(#path-2-inside-1_0_1)"/>
</svg>

