<svg width="562" height="46" viewBox="0 0 562 46" fill="none" xmlns="http://www.w3.org/2000/svg">
<mask id="path-1-inside-1_0_1" fill="white">
<path fill-rule="evenodd" clip-rule="evenodd" d="M9.9646 7.1875C9.9646 3.38012 13.0428 0.26418 16.9363 0.0159437V0H17.4381H544.562H545.06V0.0157191C548.955 0.262293 552.035 3.37897 552.035 7.1875C552.035 7.24612 552.035 7.30457 552.033 7.36285C557.926 10.054 562 15.8298 562 22.5208C562 29.2436 557.887 35.0425 551.949 37.7169C552.006 38.0742 552.035 38.44 552.035 38.8125C552.035 42.621 548.955 45.7377 545.06 45.9843V46H544.562H17.4381H16.9363V45.9841C13.0428 45.7358 9.9646 42.6199 9.9646 38.8125C9.9646 38.44 9.99407 38.0741 10.0509 37.7169C4.11296 35.0424 0 29.2436 0 22.5208C0 15.8299 4.07417 10.0541 9.96678 7.36291C9.96533 7.30461 9.9646 7.24614 9.9646 7.1875Z"/>
</mask>
<path fill-rule="evenodd" clip-rule="evenodd" d="M9.9646 7.1875C9.9646 3.38012 13.0428 0.26418 16.9363 0.0159437V0H17.4381H544.562H545.06V0.0157191C548.955 0.262293 552.035 3.37897 552.035 7.1875C552.035 7.24612 552.035 7.30457 552.033 7.36285C557.926 10.054 562 15.8298 562 22.5208C562 29.2436 557.887 35.0425 551.949 37.7169C552.006 38.0742 552.035 38.44 552.035 38.8125C552.035 42.621 548.955 45.7377 545.06 45.9843V46H544.562H17.4381H16.9363V45.9841C13.0428 45.7358 9.9646 42.6199 9.9646 38.8125C9.9646 38.44 9.99407 38.0741 10.0509 37.7169C4.11296 35.0424 0 29.2436 0 22.5208C0 15.8299 4.07417 10.0541 9.96678 7.36291C9.96533 7.30461 9.9646 7.24614 9.9646 7.1875Z" fill="white" fill-opacity="0.5"/>
<path d="M16.9363 0.0159437L17.0635 2.01189L18.9363 1.89249V0.0159437H16.9363ZM16.9363 0V-2H14.9363V0H16.9363ZM545.06 0H547.06V-2H545.06V0ZM545.06 0.0157191H543.06V1.89312L544.934 2.01172L545.06 0.0157191ZM552.033 7.36285L550.034 7.3126L550.001 8.63329L551.202 9.18211L552.033 7.36285ZM551.949 37.7169L551.128 35.8934L549.734 36.5211L549.974 38.0308L551.949 37.7169ZM545.06 45.9843L544.934 43.9883L543.06 44.1069V45.9843H545.06ZM545.06 46V48H547.06V46H545.06ZM16.9363 46H14.9363V48H16.9363V46ZM16.9363 45.9841H18.9363V44.1075L17.0635 43.9881L16.9363 45.9841ZM10.0509 37.7169L12.0261 38.031L12.2662 36.5212L10.8722 35.8933L10.0509 37.7169ZM9.96678 7.36291L10.7976 9.18216L11.9991 8.63347L11.9662 7.3131L9.96678 7.36291ZM16.809 -1.98C11.9368 -1.66937 7.9646 2.25207 7.9646 7.1875H11.9646C11.9646 4.50817 14.1487 2.19773 17.0635 2.01189L16.809 -1.98ZM14.9363 0V0.0159437H18.9363V0H14.9363ZM17.4381 -2H16.9363V2H17.4381V-2ZM544.562 -2H17.4381V2H544.562V-2ZM545.06 -2H544.562V2H545.06V-2ZM547.06 0.0157191V0H543.06V0.0157191H547.06ZM554.035 7.1875C554.035 2.25056 550.061 -1.67173 545.187 -1.98029L544.934 2.01172C547.85 2.19632 550.035 4.50738 550.035 7.1875H554.035ZM554.033 7.4131C554.034 7.33798 554.035 7.26278 554.035 7.1875H550.035C550.035 7.22946 550.035 7.27116 550.034 7.3126L554.033 7.4131ZM564 22.5208C564 14.9856 559.412 8.53382 552.864 5.5436L551.202 9.18211C556.44 11.5742 560 16.6741 560 22.5208H564ZM552.771 39.5405C559.368 36.569 564 30.092 564 22.5208H560C560 28.3952 556.406 33.5159 551.128 35.8934L552.771 39.5405ZM554.035 38.8125C554.035 38.3343 553.998 37.8635 553.924 37.4031L549.974 38.0308C550.014 38.2848 550.035 38.5457 550.035 38.8125H554.035ZM545.187 47.9803C550.061 47.6717 554.035 43.7494 554.035 38.8125H550.035C550.035 41.4926 547.85 43.8037 544.934 43.9883L545.187 47.9803ZM547.06 46V45.9843H543.06V46H547.06ZM544.562 48H545.06V44H544.562V48ZM17.4381 48H544.562V44H17.4381V48ZM16.9363 48H17.4381V44H16.9363V48ZM14.9363 45.9841V46H18.9363V45.9841H14.9363ZM7.9646 38.8125C7.9646 43.7479 11.9368 47.6694 16.809 47.98L17.0635 43.9881C14.1487 43.8023 11.9646 41.4918 11.9646 38.8125H7.9646ZM8.0757 37.4028C8.00244 37.8634 7.9646 38.3344 7.9646 38.8125H11.9646C11.9646 38.5457 11.9857 38.2848 12.0261 38.031L8.0757 37.4028ZM-2 22.5208C-2 30.0919 2.63213 36.5689 9.22952 39.5405L10.8722 35.8933C5.59379 33.5159 2 28.3952 2 22.5208H-2ZM9.13592 5.54366C2.58852 8.53391 -2 14.9856 -2 22.5208H2C2 16.6741 5.55981 11.5743 10.7976 9.18216L9.13592 5.54366ZM7.9646 7.1875C7.9646 7.26273 7.96554 7.33781 7.9674 7.41272L11.9662 7.3131C11.9651 7.27142 11.9646 7.22955 11.9646 7.1875H7.9646Z" fill="#E2D4BB" mask="url(#path-1-inside-1_0_1)"/>
<mask id="path-3-inside-2_0_1" fill="white">
<path fill-rule="evenodd" clip-rule="evenodd" d="M12.8586 9.25C12.8586 5.93929 15.9038 3.22981 19.7556 3.01387V3H20.2522H541.748H542.241V3.01368C546.095 3.22817 549.142 5.93829 549.142 9.25C549.142 9.30099 549.141 9.35183 549.14 9.40252C554.969 11.7427 559 16.7651 559 22.5833C559 28.4292 554.931 33.4717 549.056 35.7973C549.112 36.1079 549.142 36.4261 549.142 36.75C549.142 40.0617 546.095 42.7718 542.241 42.9863V43H541.748H20.2522H19.7556V42.9861C15.9038 42.7702 12.8586 40.0607 12.8586 36.75C12.8586 36.4261 12.8877 36.108 12.9439 35.7974C7.06921 33.4718 3 28.4293 3 22.5833C3 16.765 7.03084 11.7425 12.8607 9.40239C12.8593 9.35174 12.8586 9.30094 12.8586 9.25Z"/>
</mask>
<path d="M19.7556 3.01387L19.8116 4.01231L20.7556 3.95938V3.01387H19.7556ZM19.7556 3V2H18.7556V3H19.7556ZM542.241 3H543.241V2H542.241V3ZM542.241 3.01368H541.241V3.95957L542.186 4.01213L542.241 3.01368ZM549.14 9.40252L548.14 9.37484L548.121 10.0711L548.767 10.3305L549.14 9.40252ZM549.056 35.7973L548.688 34.8675L547.927 35.1691L548.072 35.9752L549.056 35.7973ZM542.241 42.9863L542.186 41.9879L541.241 42.0404V42.9863H542.241ZM542.241 43V44H543.241V43H542.241ZM19.7556 43H18.7556V44H19.7556V43ZM19.7556 42.9861H20.7556V42.0406L19.8116 41.9877L19.7556 42.9861ZM12.9439 35.7974L13.9279 35.9755L14.0738 35.1692L13.312 34.8676L12.9439 35.7974ZM12.8607 9.40239L13.2332 10.3304L13.8801 10.0708L13.8603 9.3741L12.8607 9.40239ZM19.6997 2.01544C15.4722 2.25244 11.8586 5.26711 11.8586 9.25H13.8586C13.8586 6.61147 16.3354 4.20718 19.8116 4.01231L19.6997 2.01544ZM18.7556 3V3.01387H20.7556V3H18.7556ZM20.2522 2H19.7556V4H20.2522V2ZM541.748 2H20.2522V4H541.748V2ZM542.241 2H541.748V4H542.241V2ZM543.241 3.01368V3H541.241V3.01368H543.241ZM550.142 9.25C550.142 5.26589 546.526 2.25063 542.297 2.01522L542.186 4.01213C545.663 4.20571 548.142 6.61068 548.142 9.25H550.142ZM550.139 9.4302C550.141 9.37064 550.142 9.31056 550.142 9.25H548.142C548.142 9.29141 548.141 9.33302 548.14 9.37484L550.139 9.4302ZM560 22.5833C560 16.2684 555.632 10.931 549.512 8.4745L548.767 10.3305C554.307 12.5543 558 17.2618 558 22.5833H560ZM549.424 36.7271C555.59 34.2861 560 28.9284 560 22.5833H558C558 27.93 554.271 32.6572 548.688 34.8675L549.424 36.7271ZM550.142 36.75C550.142 36.3659 550.107 35.9882 550.04 35.6194L548.072 35.9752C548.118 36.2277 548.142 36.4863 548.142 36.75H550.142ZM542.297 43.9848C546.526 43.7494 550.142 40.7341 550.142 36.75H548.142C548.142 39.3893 545.663 41.7943 542.186 41.9879L542.297 43.9848ZM543.241 43V42.9863H541.241V43H543.241ZM541.748 44H542.241V42H541.748V44ZM20.2522 44H541.748V42H20.2522V44ZM19.7556 44H20.2522V42H19.7556V44ZM18.7556 42.9861V43H20.7556V42.9861H18.7556ZM11.8586 36.75C11.8586 40.7329 15.4722 43.7476 19.6997 43.9846L19.8116 41.9877C16.3354 41.7928 13.8586 39.3885 13.8586 36.75H11.8586ZM11.9599 35.6194C11.8932 35.9883 11.8586 36.366 11.8586 36.75H13.8586C13.8586 36.4863 13.8823 36.2278 13.9279 35.9755L11.9599 35.6194ZM2 22.5833C2 28.9285 6.40986 34.2863 12.5758 36.7272L13.312 34.8676C7.72855 32.6574 4 27.93 4 22.5833H2ZM12.4882 8.47436C6.36844 10.9308 2 16.2683 2 22.5833H4C4 17.2617 7.69323 12.5542 13.2332 10.3304L12.4882 8.47436ZM11.8586 9.25C11.8586 9.31038 11.8594 9.37061 11.8611 9.43068L13.8603 9.3741C13.8592 9.33287 13.8586 9.2915 13.8586 9.25H11.8586Z" fill="#FFC700" fill-opacity="0.5" mask="url(#path-3-inside-2_0_1)"/>
</svg>
